<svg xmlns="http://www.w3.org/2000/svg" width="20.718" height="20.713" viewBox="0 0 20.718 20.713">
  <path id="FontAwsome_instagram_" data-name="FontAwsome (instagram)" d="M10.286,36.871A5.311,5.311,0,1,0,15.6,42.182,5.3,5.3,0,0,0,10.286,36.871Zm0,8.763a3.453,3.453,0,1,1,3.453-3.453,3.459,3.459,0,0,1-3.453,3.453Zm6.767-8.98a1.239,1.239,0,1,1-1.239-1.239A1.236,1.236,0,0,1,17.053,36.654Zm3.517,1.257a6.13,6.13,0,0,0-1.673-4.34,6.17,6.17,0,0,0-4.34-1.673c-1.71-.1-6.836-.1-8.546,0a6.161,6.161,0,0,0-4.34,1.669A6.15,6.15,0,0,0,0,37.906c-.1,1.71-.1,6.836,0,8.546a6.13,6.13,0,0,0,1.673,4.34,6.178,6.178,0,0,0,4.34,1.673c1.71.1,6.836.1,8.546,0a6.13,6.13,0,0,0,4.34-1.673,6.17,6.17,0,0,0,1.673-4.34C20.667,44.742,20.667,39.621,20.57,37.911ZM18.361,48.287a3.5,3.5,0,0,1-1.969,1.969c-1.363.541-4.6.416-6.106.416s-4.747.12-6.106-.416a3.5,3.5,0,0,1-1.969-1.969c-.541-1.363-.416-4.6-.416-6.106s-.12-4.747.416-6.106a3.5,3.5,0,0,1,1.969-1.969c1.363-.541,4.6-.416,6.106-.416s4.747-.12,6.106.416a3.5,3.5,0,0,1,1.969,1.969c.541,1.363.416,4.6.416,6.106S18.9,46.928,18.361,48.287Z" transform="translate(0.075 -31.825)"/>
</svg>
