<?xml version="1.0" ?><!DOCTYPE svg  PUBLIC '-//W3C//DTD SVG 1.1//EN'  'http://www.w3.org/Graphics/SVG/1.1/DTD/svg11.dtd'><svg height="32px" style="fill-rule:evenodd;clip-rule:evenodd;stroke-linejoin:round;stroke-miterlimit:2;" version="1.1" width="32px" xml:space="preserve" xmlns="http://www.w3.org/2000/svg" xmlns:serif="http://www.serif.com/" xmlns:xlink="http://www.w3.org/1999/xlink"><g id="Layer2"><path d="M12.864,8.429l-2.935,-0c-0.398,-0 -0.779,0.158 -1.061,0.439c-0.281,0.282 -0.439,0.663 -0.439,1.061c-0,-0 -0,2.935 -0,2.935c-0,-0 -2.075,2.075 -2.075,2.075c-0.282,0.282 -0.44,0.663 -0.44,1.061c0,0.398 0.158,0.779 0.44,1.061c-0,-0 2.075,2.075 2.075,2.075c-0,0 -0,2.935 -0,2.935c-0,0.398 0.158,0.779 0.439,1.061c0.282,0.281 0.663,0.439 1.061,0.439c-0,0 2.935,0 2.935,0c-0,0 2.075,2.075 2.075,2.075c0.282,0.282 0.663,0.44 1.061,0.44c0.398,-0 0.779,-0.158 1.061,-0.44c-0,0 2.075,-2.075 2.075,-2.075c0,0 2.935,0 2.935,0c0.398,0 0.779,-0.158 1.061,-0.439c0.281,-0.282 0.439,-0.663 0.439,-1.061c0,0 0,-2.935 0,-2.935c0,0 2.075,-2.075 2.075,-2.075c0.282,-0.282 0.44,-0.663 0.44,-1.061c-0,-0.398 -0.158,-0.779 -0.44,-1.061c0,0 -2.075,-2.075 -2.075,-2.075c0,-0 0,-2.935 0,-2.935c0,-0.398 -0.158,-0.779 -0.439,-1.061c-0.282,-0.281 -0.663,-0.439 -1.061,-0.439c0,-0 -2.935,-0 -2.935,-0c0,-0 -2.075,-2.075 -2.075,-2.075c-0.282,-0.282 -0.663,-0.44 -1.061,-0.44c-0.398,0 -0.779,0.158 -1.061,0.44l-2.075,2.075Zm0.207,1c0.133,-0 0.26,-0.053 0.354,-0.147l2.221,-2.221c0.094,-0.094 0.221,-0.147 0.354,-0.147c0.133,0 0.26,0.053 0.354,0.147l2.221,2.221c0.094,0.094 0.221,0.147 0.354,0.147l3.142,-0c0.133,-0 0.26,0.053 0.354,0.146c0.093,0.094 0.146,0.221 0.146,0.354l0,3.142c0,0.133 0.053,0.26 0.147,0.354l2.221,2.221c0.094,0.094 0.147,0.221 0.147,0.354c-0,0.133 -0.053,0.26 -0.147,0.354l-2.221,2.221c-0.094,0.094 -0.147,0.221 -0.147,0.354l0,3.142c0,0.133 -0.053,0.26 -0.146,0.354c-0.094,0.093 -0.221,0.146 -0.354,0.146l-3.142,0c-0.133,0 -0.26,0.053 -0.354,0.147l-2.221,2.221c-0.094,0.094 -0.221,0.147 -0.354,0.147c-0.133,-0 -0.26,-0.053 -0.354,-0.147l-2.221,-2.221c-0.094,-0.094 -0.221,-0.147 -0.354,-0.147l-3.142,0c-0.133,0 -0.26,-0.053 -0.354,-0.146c-0.093,-0.094 -0.146,-0.221 -0.146,-0.354l-0,-3.142c-0,-0.133 -0.053,-0.26 -0.147,-0.354l-2.221,-2.221c-0.094,-0.094 -0.147,-0.221 -0.147,-0.354c0,-0.133 0.053,-0.26 0.147,-0.354l2.221,-2.221c0.094,-0.094 0.147,-0.221 0.147,-0.354l-0,-3.142c-0,-0.133 0.053,-0.26 0.146,-0.354c0.094,-0.093 0.221,-0.146 0.354,-0.146l3.142,-0Zm4.636,2.571l-1.353,-1.354c-0.196,-0.195 -0.512,-0.195 -0.708,0l-1.353,1.354c-0,0 -1.793,0 -1.793,0c-0.276,0 -0.5,0.224 -0.5,0.5l0,1.793c-0,-0 -1.354,1.353 -1.354,1.353c-0.195,0.196 -0.195,0.512 0,0.708l1.354,1.353c0,0 0,1.793 0,1.793c0,0.276 0.224,0.5 0.5,0.5l1.793,0c-0,0 1.353,1.354 1.353,1.354c0.196,0.195 0.512,0.195 0.708,-0l1.353,-1.354c0,0 1.793,0 1.793,0c0.276,0 0.5,-0.224 0.5,-0.5l-0,-1.793c0,0 1.354,-1.353 1.354,-1.353c0.195,-0.196 0.195,-0.512 -0,-0.708l-1.354,-1.353c-0,-0 -0,-1.793 -0,-1.793c-0,-0.276 -0.224,-0.5 -0.5,-0.5l-1.793,-0Zm-0.561,0.854c0.094,0.093 0.221,0.146 0.354,0.146l1.5,0c-0,0 -0,1.5 -0,1.5c-0,0.133 0.053,0.26 0.146,0.354l1.147,1.146c-0,0 -1.147,1.146 -1.147,1.146c-0.093,0.094 -0.146,0.221 -0.146,0.354l-0,1.5c-0,-0 -1.5,0 -1.5,0c-0.133,0 -0.26,0.053 -0.354,0.146l-1.146,1.147c-0,-0 -1.146,-1.147 -1.146,-1.147c-0.094,-0.093 -0.221,-0.146 -0.354,-0.146l-1.5,0c0,-0 0,-1.5 0,-1.5c0,-0.133 -0.053,-0.26 -0.146,-0.354l-1.147,-1.146c0,-0 1.147,-1.146 1.147,-1.146c0.093,-0.094 0.146,-0.221 0.146,-0.354l0,-1.5c0,0 1.5,0 1.5,0c0.133,0 0.26,-0.053 0.354,-0.146l1.146,-1.147c0,0 1.146,1.147 1.146,1.147Z"/></g></svg>