<?xml version="1.0" ?><!DOCTYPE svg  PUBLIC '-//W3C//DTD SVG 1.1//EN'  'http://www.w3.org/Graphics/SVG/1.1/DTD/svg11.dtd'><svg height="32px" style="fill-rule:evenodd;clip-rule:evenodd;stroke-linejoin:round;stroke-miterlimit:2;" version="1.1" width="32px" xml:space="preserve" xmlns="http://www.w3.org/2000/svg" xmlns:serif="http://www.serif.com/" xmlns:xlink="http://www.w3.org/1999/xlink"><path d="M14.5,20.694l0,0.806c0,0.276 0.224,0.5 0.5,0.5l2,0c0.276,0 0.5,-0.224 0.5,-0.5l-0,-0.807l5,1.667c0,0 0,1.64 0,1.64c0,0.276 0.224,0.5 0.5,0.5l3,-0c0.828,-0 1.5,-0.672 1.5,-1.5l-0,-3c-0,-0.189 -0.107,-0.363 -0.276,-0.447l-2.921,-1.46l4.171,-1.391c0.613,-0.204 1.026,-0.777 1.026,-1.423l0,-2.279c0,-0.161 -0.077,-0.312 -0.208,-0.406c-0.13,-0.094 -0.298,-0.119 -0.45,-0.068c-0.447,0.149 -0.895,0.3 -1.342,0.452l0,-0.55c-0,-0.489 -0.239,-0.948 -0.639,-1.228c-0.113,-0.079 -0.234,-0.141 -0.361,-0.186c0.002,-0.057 -0.446,-1.433 -0.742,-2.32c-0.247,-0.743 -1.024,-1.171 -1.784,-0.982c-0.002,0 -0.003,0 -0.004,0.001c-1.538,0.394 -4.597,1.334 -6.31,2.92c-0.834,0.769 -1.346,1.604 -1.66,2.336c-0.314,-0.731 -0.826,-1.566 -1.661,-2.336c-1.713,-1.587 -4.773,-2.527 -6.314,-2.913c0,0 -0,0 -0.001,0c-0.756,-0.188 -1.529,0.237 -1.775,0.976c-0.302,0.883 -0.75,2.261 -0.749,2.317c-0.127,0.045 -0.248,0.107 -0.361,0.186c-0.4,0.281 -0.639,0.739 -0.639,1.229l-0,0.545l-1.342,-0.447c-0.152,-0.051 -0.32,-0.026 -0.45,0.068c-0.131,0.094 -0.208,0.245 -0.208,0.406l0,2.279c0,0.646 0.413,1.219 1.026,1.423l4.176,1.392l-2.918,1.459c-0.169,0.084 -0.276,0.257 -0.276,0.446c0,-0 -0.004,1.813 -0.006,2.998c-0.001,0.398 0.157,0.781 0.438,1.063c0.282,0.282 0.664,0.44 1.062,0.44c1.185,0 2.998,-0 2.998,-0c0.276,-0 0.5,-0.224 0.5,-0.5l-0,-1.64l5,-1.666Zm8.462,-2.154l-4.38,1.46l4.576,1.526c0.204,0.068 0.342,0.259 0.342,0.474c-0,0 -0,1.5 0,1.5c0,0 2.5,0 2.5,-0c0.276,-0 0.5,-0.224 0.5,-0.5c-0,0 -0,-2.691 -0,-2.691l-3.538,-1.769Zm-13.919,0.001l-3.536,1.768l-0.005,2.69c-0,0.133 0.052,0.26 0.146,0.354c0.094,0.094 0.221,0.147 0.354,0.147l2.498,-0l-0,-1.5c0,-0.215 0.138,-0.406 0.342,-0.474c-0,-0 4.577,-1.526 4.577,-1.526l-4.376,-1.459Zm6.457,2.459l0,-3.5l1,0c0,0.001 0,3.5 0,3.5l-0,-0l-0,-0l-1,0Zm-1,-1.694l-0,-1.946l-11,-3.666c-0,-0 -0,1.585 0,1.585c0,0.215 0.138,0.407 0.342,0.475l10.658,3.552Zm3,0l10.658,-3.552c0.204,-0.068 0.342,-0.26 0.342,-0.475c0,-0.708 0,-1.158 0,-1.584c-3.671,1.237 -7.366,2.585 -11,3.678l-0,1.933Zm9,-5.986l0,-0.892c-0,-0.163 -0.08,-0.316 -0.213,-0.409c-0.134,-0.094 -0.305,-0.116 -0.458,-0.061l-9.649,3.508c-0.114,0.044 -0.238,0.044 -0.35,0.004l-9.659,-3.512c-0.153,-0.056 -0.324,-0.033 -0.458,0.06c-0.133,0.094 -0.213,0.247 -0.213,0.41l-0,0.878l9.581,3.194l1.846,-0c3.162,-0.939 6.371,-2.081 9.573,-3.18Zm-1.02,-2.299l-0.67,-2.011c-0.083,-0.248 -0.341,-0.39 -0.595,-0.328c-1.43,0.367 -4.285,1.212 -5.875,2.685c-0.001,0 -0.001,0 -0.001,0.001c-1.091,1.006 -1.536,2.142 -1.716,2.873l8.857,-3.22Zm-10.519,2.083c-0.272,-0.557 -0.683,-1.167 -1.3,-1.736c-0,-0.001 -0,-0.001 -0.001,-0.001c-1.591,-1.473 -4.446,-2.318 -5.877,-2.677c-0.249,-0.061 -0.504,0.079 -0.585,0.323c-0.001,0.001 -0.001,0.002 -0.002,0.004c-0.242,0.706 -0.559,1.654 -0.676,2.004l7.771,2.826c-1.188,-1.065 -2.675,-1.845 -4.434,-2.368c-0.264,-0.078 -0.415,-0.357 -0.336,-0.622c0.078,-0.264 0.357,-0.415 0.622,-0.336c1.912,0.569 3.526,1.423 4.818,2.583Zm8.871,-3.575c-3.179,1.136 -3.43,1.648 -4.089,2.042c-0.237,0.142 -0.314,0.449 -0.172,0.686c0.142,0.237 0.449,0.314 0.686,0.172c0.63,-0.378 0.869,-0.871 3.911,-1.958c0.26,-0.093 0.396,-0.379 0.303,-0.639c-0.093,-0.26 -0.379,-0.396 -0.639,-0.303Z" id="Book"/></svg>