<?xml version="1.0" ?><!DOCTYPE svg  PUBLIC '-//W3C//DTD SVG 1.1//EN'  'http://www.w3.org/Graphics/SVG/1.1/DTD/svg11.dtd'><svg height="32px" style="fill-rule:evenodd;clip-rule:evenodd;stroke-linejoin:round;stroke-miterlimit:2;" version="1.1" width="32px" xml:space="preserve" xmlns="http://www.w3.org/2000/svg" xmlns:serif="http://www.serif.com/" xmlns:xlink="http://www.w3.org/1999/xlink"><path d="M14.736,19.425l3.333,2.12l-6.337,4.033c-0.188,0.12 -0.274,0.348 -0.212,0.562c0.062,0.213 0.258,0.36 0.48,0.36l3,-0c0.095,-0 0.188,-0.027 0.268,-0.078l5.231,-3.33l5.233,3.33c0.08,0.051 0.173,0.078 0.268,0.078l3,0c0.222,0 0.418,-0.147 0.48,-0.36c0.062,-0.214 -0.024,-0.442 -0.212,-0.562l-6.338,-4.033l3.304,-2.103c0.158,-0.084 0.266,-0.251 0.266,-0.442l-0,-1.5l0.5,0c0.828,0 1.5,-0.672 1.5,-1.5l0,-8c-0,-0.828 -0.672,-1.5 -1.5,-1.5l-11.5,0l-0,-0.5c0,-0.276 -0.224,-0.5 -0.5,-0.5l-1,0c-0.828,0 -1.5,0.672 -1.5,1.5l0,10c-0,0.398 0.158,0.779 0.439,1.061c0.282,0.281 0.663,0.439 1.061,0.439l0.5,0l0,0.5c0,0.179 0.094,0.337 0.236,0.425Zm4.264,2.713l0.568,0.362l-4.714,3c0,0 -1.137,0 -1.137,0l5.283,-3.362Zm2.999,-0l5.284,3.362c-0,0 -1.137,0 -1.137,0l-4.715,-3l0.568,-0.362Zm-13.503,-7.774c-0.07,-1.317 -1.162,-2.364 -2.496,-2.364c-1.38,-0 -2.5,1.12 -2.5,2.5c-0,0.817 0.393,1.543 1,2l0,4.001c0,0.828 0.671,1.499 1.499,1.499l0.003,-0c0.397,0 0.778,-0.158 1.059,-0.439c0.281,-0.281 0.439,-0.662 0.439,-1.059l-0,-4.002c0.574,-0.432 0.957,-1.105 0.997,-1.869l0.003,3.369c-0,0.828 0.672,1.5 1.5,1.5c0.828,0 1.5,-0.672 1.5,-1.5l-0.007,-5.495c0.611,-0.456 1.007,-1.185 1.007,-2.005c-0,-1.38 -1.12,-2.5 -2.5,-2.5c-1.38,-0 -2.5,1.12 -2.5,2.5c-0,0.815 0.39,1.539 0.994,1.995l0.002,1.869Zm11.435,7.181l0.568,0.362l0.569,-0.362l-0.568,-0.361l-0.569,0.361Zm-13.431,-4.595c-0.162,0.033 -0.329,0.05 -0.5,0.05c-0.171,-0 -0.338,-0.017 -0.5,-0.05l0,3.551c0,0.276 0.224,0.499 0.5,0.499c0.132,0 0.261,-0.052 0.354,-0.146c0.094,-0.093 0.146,-0.22 0.146,-0.352l-0,-3.552Zm13.069,3.641l-0.569,0.362l-2.283,-1.453l1.137,0l1.715,1.091Zm3.577,-1.091l-1.715,1.091l0.568,0.361l2.282,-1.452l-1.135,0Zm-3.429,0l0.783,0.498l0.783,-0.498l-1.566,0Zm5.783,-1.001l-10,0.001l-0,-0.998l10,-0l-0,0.997Zm-16.005,-5.55c0.001,1.312 0.005,5.044 0.005,5.051c0.013,0.264 0.232,0.5 0.5,0.5c0.276,0 0.5,-0.224 0.5,-0.5l-0.006,-5.049c-0.16,0.032 -0.325,0.049 -0.494,0.049c-0.173,-0 -0.342,-0.018 -0.505,-0.051Zm5.005,4.551l-0,-11l-0.5,0c-0.276,0 -0.5,0.224 -0.5,0.5l-0,10c-0,0.133 0.053,0.26 0.146,0.354c0.094,0.093 0.221,0.146 0.354,0.146l0.5,0Zm11,-10l-10,0l-0,9l10,0l0,-9Zm1,0l0.5,0c0.276,0 0.5,0.224 0.5,0.5l0,8c-0,0.276 -0.224,0.5 -0.5,0.5l-0.5,0l0,-9Zm-20.5,5.5c0.828,-0 1.5,0.672 1.5,1.5c-0,0.828 -0.672,1.5 -1.5,1.5c-0.828,-0 -1.5,-0.672 -1.5,-1.5c-0,-0.828 0.672,-1.5 1.5,-1.5Zm4,-4c0.828,-0 1.5,0.672 1.5,1.5c-0,0.828 -0.672,1.5 -1.5,1.5c-0.828,-0 -1.5,-0.672 -1.5,-1.5c-0,-0.828 0.672,-1.5 1.5,-1.5Z" id="Bedug"/></svg>