<svg xmlns="http://www.w3.org/2000/svg" width="25.193" height="19.55" viewBox="0 0 25.193 19.55">
  <path id="FontAwsome_twitter_" data-name="FontAwsome (twitter)" d="M22.6,52.954c.016.214.016.428.016.642A14.254,14.254,0,0,1,7.929,67.632,15.089,15.089,0,0,1,0,65.418a11.171,11.171,0,0,0,1.247.061,10.651,10.651,0,0,0,6.41-2.108A5.149,5.149,0,0,1,2.829,59.95a6.808,6.808,0,0,0,.975.076,5.7,5.7,0,0,0,1.359-.168,5,5,0,0,1-4.14-4.842v-.061a5.384,5.384,0,0,0,2.334.626,4.877,4.877,0,0,1-2.3-4.109,4.731,4.731,0,0,1,.7-2.49A14.913,14.913,0,0,0,12.4,54.146a5.331,5.331,0,0,1-.128-1.13,5.05,5.05,0,0,1,5.163-4.933,5.266,5.266,0,0,1,3.773,1.558,10.458,10.458,0,0,0,3.277-1.191,4.968,4.968,0,0,1-2.27,2.719,10.733,10.733,0,0,0,2.973-.764A10.844,10.844,0,0,1,22.6,52.954Z" transform="translate(0 -48.082)"/>
</svg>
