<svg xmlns="http://www.w3.org/2000/svg" width="24.549" height="17.261" viewBox="0 0 24.549 17.261">
  <path id="FontAwsome_youtube_" data-name="FontAwsome (youtube)" d="M38.969,66.7a3.085,3.085,0,0,0-2.17-2.184C34.884,64,27.208,64,27.208,64s-7.677,0-9.591.516a3.085,3.085,0,0,0-2.17,2.184,34.731,34.731,0,0,0,0,11.894,3.039,3.039,0,0,0,2.17,2.15c1.914.516,9.591.516,9.591.516s7.677,0,9.591-.516a3.039,3.039,0,0,0,2.17-2.15,34.731,34.731,0,0,0,0-11.894ZM24.7,76.3V69l6.416,3.65Z" transform="translate(-14.933 -64)"/>
</svg>
